<svg width="1024" height="1024" xmlns="http://www.w3.org/2000/svg" version="1.1" xml:space="preserve">
 <!--
credit: https://www.svgrepo.com/svg/259472/route
editor: https://editor.method.ac
-->

 <g>
  <title>Locus App Icon</title>
  <rect stroke="#000" id="svg_18" height="1024" width="1024" y="-0.00002" x="-0.00002" fill="#fff"/>
  <g stroke="null" id="svg_41">
   <g stroke="null" id="svg_1">
    <path stroke="null" d="m760.10261,156.78405c-30.88812,0 -56.02271,25.13459 -56.02271,56.02271s25.13459,56.02271 56.02271,56.02271s56.02271,-25.13459 56.02271,-56.02271s-25.13459,-56.02271 -56.02271,-56.02271z" fill="#FFFFFF" id="svg_2"/>
    <path stroke="null" d="m263.89742,586.49071c-30.88812,0 -56.02271,25.13459 -56.02271,56.02271c0,30.88812 25.13459,56.02271 56.02271,56.02271s56.02271,-25.13459 56.02271,-56.02271c0.00177,-30.88635 -25.13459,-56.02271 -56.02271,-56.02271z" fill="#FFFFFF" id="svg_3"/>
   </g>
   <path stroke="null" d="m263.89742,522.46525c-83.84721,0 -152.06265,68.21544 -152.06265,152.06265c0,87.26161 117.45521,229.63283 152.06265,229.63283s152.06265,-142.37122 152.06265,-229.63283c0,-83.84721 -68.21544,-152.06265 -152.06265,-152.06265zm0,208.08536c-48.5435,0 -88.03543,-39.49195 -88.03543,-88.03543c0,-48.5435 39.49195,-88.03543 88.03543,-88.03543s88.03543,39.49195 88.03543,88.03543c0.00177,48.5435 -39.49195,88.03543 -88.03543,88.03543z" fill="#D0E8FF" id="svg_4"/>
   <path stroke="null" d="m760.10261,92.75685c-83.84721,0 -152.06265,68.21544 -152.06265,152.06265c0,87.26161 117.45521,229.63283 152.06265,229.63283s152.06265,-142.37122 152.06265,-229.63283c0,-83.84721 -68.21719,-152.06265 -152.06265,-152.06265zm0,208.08536c-48.5435,0 -88.03543,-39.49195 -88.03543,-88.03543s39.49195,-88.03543 88.03543,-88.03543c48.5435,0 88.03543,39.49195 88.03543,88.03543s-39.49195,88.03543 -88.03543,88.03543z" fill="#5CB0FF" id="svg_5"/>
   <g stroke="null" id="svg_6">
    <path stroke="null" d="m760.10261,60.74411c-101.50261,0 -184.07537,82.57278 -184.07537,184.07537c0,83.29901 115.56381,261.64731 184.07537,261.64731s184.07537,-178.34653 184.07537,-261.64731c0,-101.50261 -82.57278,-184.07537 -184.07537,-184.07537zm0,413.70996c-34.60744,0 -152.06265,-142.37122 -152.06265,-229.63283c0,-83.84721 68.21544,-152.06265 152.06265,-152.06265s152.06265,68.21544 152.06265,152.06265c0,87.26161 -117.45521,229.63283 -152.06265,229.63283z" fill="#1C71DA" id="svg_7"/>
    <path stroke="null" d="m263.89742,490.45251c-101.50261,0 -184.07537,82.57278 -184.07537,184.07537c0,83.30078 115.56381,261.64731 184.07537,261.64731s184.07537,-178.34653 184.07537,-261.64731c0.00177,-101.50261 -82.57278,-184.07537 -184.07537,-184.07537zm0,413.7082c-34.60744,0 -152.06265,-142.37122 -152.06265,-229.63283c0,-83.84721 68.21544,-152.06265 152.06265,-152.06265s152.06265,68.21544 152.06265,152.06265c0,87.26161 -117.45344,229.63283 -152.06265,229.63283z" fill="#1C71DA" id="svg_8"/>
    <path stroke="null" d="m760.10261,124.76957c-48.5435,0 -88.03543,39.49195 -88.03543,88.03543s39.49195,88.03543 88.03543,88.03543c48.5435,0 88.03543,-39.49195 88.03543,-88.03543s-39.49195,-88.03543 -88.03543,-88.03543zm0,144.0599c-30.88812,0 -56.02271,-25.13459 -56.02271,-56.02271s25.13459,-56.02271 56.02271,-56.02271s56.02271,25.13459 56.02271,56.02271s-25.13459,56.02271 -56.02271,56.02271z" fill="#1C71DA" id="svg_9"/>
    <path stroke="null" d="m263.89742,554.47797c-48.5435,0 -88.03543,39.49195 -88.03543,88.03543c0,48.5435 39.49195,88.03543 88.03543,88.03543s88.03543,-39.49195 88.03543,-88.03543c0.00177,-48.54174 -39.49195,-88.03543 -88.03543,-88.03543zm0,144.0599c-30.88812,0 -56.02271,-25.13459 -56.02271,-56.02271c0,-30.88812 25.13459,-56.02271 56.02271,-56.02271s56.02271,25.13459 56.02271,56.02271c0.00177,30.88635 -25.13459,56.02271 -56.02271,56.02271z" fill="#1C71DA" id="svg_10"/>
    <path stroke="null" d="m705.52533,748.17426c-5.22118,-5.35338 -10.76315,-10.80193 -16.47612,-16.40563c-9.19963,-9.04275 -18.85932,-18.51558 -28.25286,-28.75347c-5.97913,-6.50267 -16.10773,-6.95568 -22.61921,-0.96949c-6.51148,5.97913 -6.94864,16.10773 -0.96949,22.61921c9.87122,10.75435 19.80414,20.50923 29.41096,29.94154c5.54199,5.43974 10.91828,10.72261 15.99137,15.92088c3.13411,3.22049 7.29942,4.82984 11.45767,4.82984c4.03309,0 8.0662,-1.51594 11.1774,-4.54781c6.32817,-6.1748 6.45507,-16.31044 0.28027,-22.63508z" fill="#1C71DA" id="svg_11"/>
    <path stroke="null" d="m655.34779,897.60341c-15.7023,8.41698 -34.6004,15.36562 -56.17958,20.6573c-8.58092,2.10292 -13.83381,10.77021 -11.7309,19.35994c1.78917,7.30823 8.3306,12.19271 15.52954,12.19271c1.26562,0 2.54712,-0.14807 3.83038,-0.46184c24.18273,-5.93155 45.60504,-13.84968 63.66762,-23.53405c7.79297,-4.17412 10.72261,-13.8814 6.55026,-21.66556c-4.17588,-7.79827 -13.89022,-10.73671 -21.66733,-6.54849l0.00002,0z" fill="#1C71DA" id="svg_12"/>
    <path stroke="null" d="m725.56389,796.2806c-8.59678,2.07824 -13.87259,10.73144 -11.80139,19.32116c0.71919,2.95431 1.06291,5.79935 1.06291,8.70607c0,11.06635 -5.18945,23.08808 -15.86624,36.76502c-5.43974,6.96449 -4.20409,17.02257 2.76746,22.46231c2.92259,2.28272 6.39338,3.39147 9.8395,3.39147c4.75935,0 9.46402,-2.10998 12.62283,-6.15894c15.24046,-19.51681 22.65092,-37.98481 22.65092,-56.46164c0,-5.40096 -0.65572,-10.85657 -1.95308,-16.22582c-2.07297,-8.59502 -10.77902,-13.83205 -19.32292,-11.79965z" fill="#1C71DA" id="svg_13"/>
    <path stroke="null" d="m596.07461,554.3299c2.43785,1.3291 5.07309,1.96191 7.66782,1.96191c5.66715,0 11.15271,-3.00895 14.0612,-8.32356c10.61332,-19.41458 26.69107,-32.94343 38.31268,-40.87567c7.29942,-4.97793 9.17495,-14.94433 4.18998,-22.24373c-4.96206,-7.30823 -14.94433,-9.17495 -22.24373,-4.18998c-14.51423,9.90999 -34.67795,26.9643 -48.34783,51.94378c-4.2464,7.75243 -1.39431,17.48264 6.35988,21.72727l0,-0.00002z" fill="#1C71DA" id="svg_14"/>
    <path stroke="null" d="m538.29273,928.28881c-19.49214,1.8914 -40.50902,2.88382 -62.46368,2.95431c-8.84004,0.02291 -15.98257,7.21304 -15.95966,16.05308c0.02291,8.82417 7.19013,15.95966 16.00724,15.95966c0.01587,0 0.03174,0 0.04758,0c22.95412,-0.07051 44.97929,-1.11756 65.46382,-3.1112c8.80126,-0.85139 15.24046,-8.6761 14.38027,-17.47558c-0.8602,-8.8083 -8.64437,-15.28805 -17.47558,-14.38027z" fill="#1C71DA" id="svg_15"/>
    <path stroke="null" d="m412.98283,929.08556c-36.78793,-2.55595 -62.05649,-6.52558 -62.3068,-6.57317c-8.73779,-1.31323 -16.92915,4.56367 -18.31993,13.29442c-1.39078,8.73075 4.55663,16.93619 13.28736,18.32874c1.07878,0.16394 26.80743,4.22876 65.12011,6.88517c0.37545,0.02291 0.75091,0.03878 1.12462,0.03878c8.3306,0 15.36562,-6.45507 15.9526,-14.89673c0.6099,-8.82417 -6.0426,-16.46731 -14.85795,-17.07722z" fill="#1C71DA" id="svg_16"/>
    <path stroke="null" d="m575.32215,603.56086c1.48421,15.67056 5.81522,31.9669 12.87313,48.45008c2.6811,6.28409 5.65128,12.32493 8.84708,18.14896c2.90673,5.30754 8.38701,8.30769 14.04533,8.30769c2.60353,0 5.24409,-0.63281 7.68192,-1.97778c7.75243,-4.25167 10.59041,-13.98188 6.32991,-21.72727c-2.69695,-4.91622 -5.19649,-10.01928 -7.47216,-15.34269c-5.75174,-13.43543 -9.26131,-26.51833 -10.43354,-38.87498c-0.83553,-8.8083 -8.63556,-15.2334 -17.44386,-14.42785c-8.8083,0.83553 -15.26337,8.6426 -14.42785,17.44386l0.00004,-0.00002z" fill="#1C71DA" id="svg_17"/>
   </g>
   <path stroke="null" d="m506.05613,857.07148c-30.89163,0 -56.02271,-25.13108 -56.02271,-56.02271c0,-30.89163 25.13108,-56.02271 56.02271,-56.02271s56.02271,25.13108 56.02271,56.02271c0,30.89163 -25.13108,56.02271 -56.02271,56.02271zm0,-80.0327c-13.23978,0 -24.00999,10.77021 -24.00999,24.00999s10.77021,24.00999 24.00999,24.00999s24.00999,-10.77021 24.00999,-24.00999s-10.77021,-24.00999 -24.00999,-24.00999z" fill="#00D40B" id="svg_21"/>
   <path stroke="null" d="m335.24168,323.35387c-4.0948,0 -8.19312,-1.56353 -11.31664,-4.68707l-45.27543,-45.2719c-3.00368,-3.00368 -4.68883,-7.07378 -4.68883,-11.31841s1.68692,-8.3165 4.68883,-11.31841l45.27543,-45.2719c6.25236,-6.24883 16.38799,-6.24532 22.63682,0l45.2719,45.2719c6.25059,6.25236 6.25059,16.38623 0,22.63859l-45.2719,45.2719c-3.12707,3.12178 -7.22361,4.6853 -11.32018,4.6853zm-22.63859,-61.27914l22.63859,22.63682l22.63682,-22.63682l-22.63682,-22.63682l-22.63859,22.63682z" fill="#FFC504" id="svg_22"/>
   <path stroke="null" fill="#FF5D5D" opacity="NaN" d="m818.71298,612.47492l59.93243,-44.06796" id="svg_39"/>
   <path stroke="null" fill="#FF5D5D" d="m812.05377,659.16755c-23.44844,-18.48765 -31.83217,-30.18262 -31.90011,-44.49937c-0.06196,-13.05147 10.28734,-25.64807 21.01257,-25.57543c5.3557,0.03635 16.84402,4.84001 20.91206,8.74417c2.04972,1.96714 3.02057,1.77317 7.58407,-1.51533c12.41991,-8.9499 24.54806,-9.13775 32.40279,-0.50185c12.55353,13.80197 10.26803,30.28407 -6.57006,47.38043c-8.9521,9.08942 -28.50149,25.21457 -30.56899,25.21457c-0.62911,0 -6.42165,-4.16125 -12.87232,-9.24719l0,0z" id="svg_40"/>
  </g>
 </g>
</svg>